<svg width="100" height="86" viewBox="0 0 100 86" fill="none" xmlns="http://www.w3.org/2000/svg">
<path d="M73.3443 63.4963C71.9175 65.093 70.2238 66.3245 68.4579 67.4441C61.6173 71.7808 54.2014 73.3785 46.3044 72.2509C39.1949 71.2358 33.0196 68.0561 27.8019 62.8831C27.3873 62.4721 27.2208 62.4176 26.849 62.9469C22.0766 69.7412 17.2782 76.5154 12.4866 83.2948C12.4587 83.3343 12.4412 83.3869 12.4054 83.4143C12.2409 83.5407 12.208 83.9698 11.9173 83.7679C11.6873 83.6084 11.9489 83.3639 12.0313 83.1887C13.3579 80.3701 14.699 77.559 16.0326 74.744C18.5436 69.4436 21.0468 64.1391 23.5708 58.8455C23.7846 58.397 23.7081 58.1066 23.5023 57.6672C22.8486 56.2722 21.8674 55.7499 20.4143 56.0146C19.8453 56.1183 19.2447 56.0316 18.5088 56.0316C19.1457 55.0707 19.6995 54.1793 20.3121 53.3347C20.6089 52.9255 20.6272 52.6035 20.4188 52.1417C17.8953 46.5499 16.9313 40.638 17.3825 34.5016C17.8417 28.2556 19.8051 22.5266 23.2317 17.3157C24.3486 17.3677 24.3485 17.3677 24.3487 16.1281C24.3487 16.0554 24.3549 15.9833 24.3761 15.8606C24.3855 15.6522 24.4645 15.5391 24.5556 15.4196C27.5574 11.4873 31.1637 8.31513 35.4377 6.00528C39.9995 3.5399 44.839 2.15896 49.9895 2.04209C50.3227 2.03453 50.7077 2.15123 50.9658 1.78013C51.0016 1.72858 51.1106 1.66657 51.1399 1.68586C52.3879 2.50534 53.8098 2.00991 55.1387 2.25491C57.3526 2.6631 59.5531 3.08739 61.729 3.90927C61.7744 4.25119 61.241 4.17283 61.4146 4.60263C61.4712 4.65899 61.4929 4.68348 61.5271 4.75724C61.4144 5.20365 61.1048 5.49866 60.9491 5.93468C60.6961 6.06143 60.4912 5.98369 60.2973 5.90671C57.9255 4.9652 53.7103 6.9187 52.2766 8.81797C52.4321 8.90404 52.5338 8.8303 52.6866 8.75524C52.9049 8.68588 53.0777 8.69351 53.3041 8.72758C53.937 8.87122 54.5211 8.81796 55.1561 8.7635C55.6517 8.68965 55.9676 8.41529 56.2715 8.09589C56.9693 7.36237 57.8119 6.92502 58.8516 6.81515C59.165 6.89976 59.4201 6.92273 59.6945 6.69734C60.0161 6.58468 60.2949 6.59209 60.6245 6.65047C60.8504 6.72473 60.9924 6.90589 61.2568 6.82687C61.734 7.00987 62.2529 6.80214 62.6732 7.20138C62.7433 7.35356 62.7493 7.46242 62.7011 7.623C62.4342 7.88827 62.1899 7.71999 61.9453 7.67326C60.6485 7.42553 59.4181 7.56237 58.3412 8.42805C58.0638 8.65109 57.6712 8.84749 57.8061 9.39085C57.9085 9.56124 58.0057 9.66028 58.2139 9.64787C59.658 10.1859 60.8439 11.0893 61.9984 12.0431C62.5802 12.5237 62.6853 12.5218 63.1792 11.9171C63.2854 11.7871 63.3765 11.6444 63.4815 11.5135C64.1863 10.6346 64.4701 10.6079 65.3513 11.3799C65.4579 11.5857 65.5068 11.7788 65.7622 11.8412C66.0609 11.9913 66.2625 12.1757 66.3648 12.5205C66.3548 12.6931 66.2991 12.7859 66.1654 12.8837C65.7069 12.8661 65.3672 12.634 65.0084 12.4568C64.7328 12.3208 64.4262 12.0813 64.2221 12.4971C64.0076 12.9339 63.4397 13.3208 63.9511 13.9256C64.839 14.9756 65.6894 16.0573 66.4834 17.1882C67.5336 18.684 68.4246 20.2624 68.8913 21.9855C68.8839 22.1721 69.0187 22.0853 68.9277 22.1102C68.9137 22.1141 68.9063 22.0908 68.9084 22.0406C68.9327 21.4505 68.9622 20.8615 68.8412 20.2761C68.7633 19.8991 68.8907 19.5478 68.9986 19.1951C70.1662 15.3792 69.1452 11.7732 66.2709 9.12314C65.1733 8.11113 63.9984 7.3123 62.6353 6.79251C62.3945 6.70071 62.1451 6.60834 61.9748 6.30681C61.9028 5.5594 61.7464 4.86509 62.017 4.13044C63.9208 4.55077 65.6071 5.4606 67.251 6.43835C74.8403 10.9524 80.0971 17.5114 82.9071 26.2443C82.7341 26.5647 82.2396 26.4956 82.2678 26.9662C82.3975 27.0897 82.4838 26.9722 82.5751 26.9176C82.7032 26.8409 82.8361 26.7796 82.9513 26.9171C83.0751 27.0648 83.0398 27.2343 82.9598 27.3938C82.8364 27.6398 82.5983 27.7685 82.4238 27.9624C82.2015 28.2095 82.091 28.4946 82.1995 28.8309C82.3168 29.1946 82.6099 29.1561 82.8948 29.1567C83.1731 29.1573 83.4526 29.1864 83.7391 29.3741C84.5373 32.6598 84.7802 35.9641 84.5886 39.2932C84.1283 47.2889 81.3783 54.3261 76.3674 60.4396C75.864 60.7626 75.3638 60.779 74.8417 60.7015C74.3282 60.6252 74.0613 60.8218 74.0875 61.4258C74.1084 61.9075 74.1803 62.4061 73.966 62.9267C73.8672 63.0787 73.7937 63.1819 73.6749 63.2961C73.2861 62.85 73.4598 62.3139 73.4362 61.8134C73.3824 60.6726 73.0536 60.4475 72.0257 60.943C71.9378 60.9554 71.9023 60.9534 71.8187 60.9293C71.5738 60.7047 71.6699 60.396 71.4483 60.025C71.4016 61.1213 71.3848 62.0725 71.4576 63.0252C71.467 63.149 71.54 63.2505 71.7316 63.2516C71.848 63.2454 71.9151 63.2438 72.0343 63.2474C72.4839 63.3922 72.9403 63.1418 73.3443 63.4963Z" fill="#050505"/>
<path d="M73.4145 63.5454C72.9944 63.2473 72.5549 63.7132 72.1269 63.413C71.5971 62.8106 71.7119 62.2363 72.4672 61.606C72.5466 61.5745 72.5747 61.5465 72.5848 61.5051C72.5613 61.5434 72.5283 61.5694 72.4412 61.5966C71.9604 61.6354 71.7382 61.4559 71.8661 60.9143C72.25 60.4934 72.6648 60.273 73.1546 60.4889C73.6619 60.7125 73.6244 61.2215 73.6263 61.6894C73.6282 62.1799 73.6274 62.6703 73.6286 63.234C73.6397 63.4428 73.526 63.4796 73.4145 63.5454Z" fill="#050505"/>
<path d="M83.7868 29.3508C83.3678 29.4753 82.9795 29.2205 82.5475 29.3867C82.2655 29.4953 82.0835 29.214 82.003 28.9349C81.8653 28.458 82.0184 28.0715 82.3575 27.7427C82.5721 27.5347 82.9961 27.478 82.8994 27.0359C82.7933 26.9529 82.7153 26.9605 82.6985 27.0426C82.6173 27.4404 82.3088 27.4082 82.0973 27.3043C81.7846 27.1505 82.0182 26.8709 82.0912 26.6676C82.2087 26.3405 82.5105 26.312 82.8494 26.2913C83.329 27.2554 83.505 28.293 83.7868 29.3508Z" fill="#050505"/>
<path d="M73.9875 62.971C73.9224 62.2715 73.9059 61.5675 73.8851 60.8635C73.8775 60.6085 73.939 60.4318 74.231 60.4602C74.8929 60.5246 75.555 60.5527 76.2728 60.4598C75.9149 61.064 75.4275 61.5883 74.8594 62.0871C74.6081 62.0471 74.6222 61.8856 74.6324 61.7192C74.5855 61.898 74.6216 62.0844 74.5882 62.3043C74.5062 62.6481 74.2338 62.7703 73.9875 62.971Z" fill="#050505"/>
<path d="M60.9285 5.97436C60.8857 5.42987 61.1421 5.11618 61.5037 4.80435C61.5325 4.731 61.5407 4.70388 61.5101 4.68997C61.2997 4.71541 61.0688 4.87012 60.9893 4.61008C60.9302 4.41667 61.075 4.23993 61.2607 4.15339C61.3875 4.09432 61.5238 4.05759 61.7169 3.98242C61.8728 3.97435 61.9912 3.87963 62.0603 4.05165C62.0259 4.80722 62.2178 5.52984 62.0496 6.30701C61.6053 6.51589 61.2606 6.29308 60.9285 5.97436Z" fill="#050505"/>
<path d="M24.3372 15.8147C24.6977 16.2918 24.5096 16.83 24.5035 17.3366C24.4994 17.6704 23.8328 17.6622 23.3162 17.3015C23.5584 16.7561 23.9018 16.2707 24.3372 15.8147Z" fill="#050505"/>
<path d="M74.6224 62.3104C74.3534 61.9428 74.5226 61.5406 74.6026 61.1292C74.8372 61.3806 74.7245 61.6937 74.7944 62.0338C74.7554 62.1539 74.6978 62.2126 74.6224 62.3104Z" fill="#050505"/>
<path d="M11.3433 84.6935C11.3365 84.633 11.3456 84.6105 11.3587 84.591C11.5347 84.3294 11.5229 83.9361 11.8655 83.7946C11.8918 83.7837 11.9737 83.8317 11.9738 83.8528C11.9765 84.218 11.6685 84.4002 11.4823 84.7139C11.4154 84.7433 11.3882 84.7381 11.3433 84.6935Z" fill="#232323"/>
<path d="M11.4247 84.7096C11.4471 84.9185 11.3146 85.1007 11.224 85.0585C11.047 84.9761 11.2033 84.8217 11.2925 84.678C11.3526 84.6597 11.3797 84.6651 11.4247 84.7096Z" fill="#818181"/>
<path d="M43.4968 11.351C43.0935 11.8452 42.7178 12.3033 42.3277 12.8088C42.2097 12.9666 42.1859 13.132 42.0325 13.2502C41.9906 13.2635 42.0178 13.2826 42.0069 13.2698C41.9714 13.3813 41.873 13.448 41.7657 13.5607C41.232 14.204 40.7315 14.8203 40.2171 15.4848C40.0831 15.6282 40.0704 15.8018 39.9191 15.9232C39.8059 16.0234 39.7316 16.103 39.6472 16.2242C39.5001 16.429 39.437 16.6517 39.222 16.8085C38.875 17.2056 38.5652 17.5765 38.2418 17.9954C38.1093 18.1399 38.0959 18.3127 37.9455 18.4353C37.7882 18.5874 37.6694 18.7185 37.5379 18.8933C37.4001 19.03 37.3887 19.205 37.2415 19.3317C37.0731 19.5006 36.943 19.6472 36.7999 19.8353C36.7247 20.0659 36.6358 20.2338 36.4206 20.3605C36.2474 20.5473 36.1121 20.7055 35.9656 20.9086C35.8844 21.127 35.8005 21.288 35.5916 21.3981C34.6193 22.6192 33.676 23.8056 32.7208 25.0396C32.621 25.2992 32.5241 25.5046 32.2906 25.6481C32.2619 25.6686 32.2799 25.6854 32.2699 25.6782C32.2481 25.7959 32.1355 25.8578 32.0268 25.9712C31.6234 26.439 31.2565 26.8824 30.877 27.3715C30.8361 27.5225 30.7531 27.6213 30.8537 27.7741C32.4334 28.3849 33.9844 28.9765 35.549 29.5254C35.9705 29.6733 36.0659 29.7761 35.7849 30.1995C35.0131 31.3626 35.0317 31.3761 33.6172 30.7453C33.3456 30.7237 33.1465 30.6297 32.9019 30.5266C31.5275 30.336 30.8177 30.8593 30.4625 32.3464C30.322 32.9346 30.2318 33.3573 29.4766 33.4675C28.4754 33.6137 27.8934 34.9651 28.1765 36.1929C28.2905 36.6877 28.3229 36.9777 27.7591 37.2282C26.9884 37.5707 26.7999 38.3169 27.1534 39.2268C27.2954 39.5922 27.3096 39.7711 26.9764 40.0581C26.1023 40.811 26.2315 41.82 26.6183 42.755C26.8634 43.3475 26.7484 43.7313 26.4172 44.2122C25.1126 46.1069 23.8462 48.0305 22.564 49.9421C22.4318 50.1393 22.2885 50.3282 22.1007 50.5902C21.2587 48.6758 20.6748 46.7531 20.2332 44.7833C19.3934 41.0366 19.1802 37.2356 19.6334 33.4259C20.5111 26.0467 23.3964 19.6322 28.3598 14.2938C32.9407 9.36682 38.4597 6.22154 44.9142 4.88193C46.1608 4.62322 47.4219 4.5188 48.7285 4.30568C48.8033 4.31195 48.8225 4.33215 48.8747 4.37755C48.4152 5.03005 47.9226 5.65736 47.4146 6.33262C47.2313 6.51377 47.2608 6.80365 46.9949 6.91469C45.9311 8.22795 44.9043 9.51481 43.8631 10.8481C43.7915 11.0777 43.7019 11.2334 43.4968 11.351Z" fill="#FDFDFD"/>
<path d="M61.1553 49.8289C60.1688 48.9752 59.0105 48.5582 57.8869 48.0892C57.3656 47.8717 57.2848 47.631 57.5075 47.1344C57.9244 46.2046 58.5975 45.5506 59.4292 45.0466C60.6896 44.2828 62.0717 43.9275 63.6985 43.68C62.1676 43.0414 60.8216 42.9098 59.3722 43.6032C59.1863 41.6566 59.4543 39.8586 60.3303 38.1835C61.5844 35.7852 63.5823 34.459 66.1164 34.1029C68.9492 33.7049 71.7091 33.9081 74.0449 35.9412C75.7706 37.4432 76.5837 39.4359 76.7325 41.7388C76.9127 44.5271 76.2219 47.1422 75.198 49.6795C73.3295 54.3102 70.5248 58.2942 67.2986 62.1075C67.7691 57.2616 66.395 53.298 62.4072 50.5214C62.137 50.4238 61.9074 50.3538 61.6612 50.2003C61.477 50.0707 61.3181 49.9854 61.1553 49.8289Z" fill="#FDFDFD"/>
<path d="M69.0625 10.3099C72.6427 12.8648 75.4892 16.0701 77.7298 19.8576C81.7254 26.6116 83.2126 33.9617 82.2074 41.8209C81.3865 48.2388 78.9009 53.9153 74.8697 58.8357C74.7154 59.024 74.6156 59.3385 74.2273 59.23C74.5893 57.5117 75.3487 55.9367 75.8289 54.2652C76.7893 50.9221 77.6966 47.5764 77.7472 44.0399C77.8118 39.529 76.1103 35.9488 72.7251 33.2052C71.3998 32.1311 69.9565 31.2685 68.4546 30.5026C67.2221 29.8739 66.1756 26.964 66.683 25.6592C66.7639 25.4512 66.8774 25.4261 67.0432 25.396C68.5675 25.1194 69.4366 24.0115 69.4507 22.5532C69.4682 20.7516 69.9721 19.1222 70.3683 17.4257C70.9511 14.9303 70.2366 12.6797 68.8137 10.5918C68.7573 10.3641 68.8505 10.2974 69.0625 10.3099Z" fill="#FDFDFD"/>
<path d="M44.3296 25.0651C44.1805 25.0159 44.0768 24.9869 43.9192 24.9639C43.7991 24.9664 43.7342 24.9547 43.6249 24.9148C43.2873 24.8226 42.9954 24.7502 42.6472 24.6855C42.5258 24.6811 42.462 24.6635 42.3549 24.6178C42.2059 24.5684 42.102 24.5405 41.9444 24.5196C41.8245 24.5229 41.7596 24.5116 41.6503 24.4714C41.0068 24.3685 40.9522 24.1227 41.2179 23.5475C44.0945 17.3179 46.9455 11.0754 49.7865 4.82787C49.9766 4.40973 50.1977 4.2727 50.6335 4.26891C52.7763 4.25032 54.8989 4.41917 57.0542 4.8839C57.1669 5.16635 56.9239 5.09446 56.7505 5.17053C56.3257 5.14571 56.0067 5.34944 55.6187 5.47956C55.5081 5.55023 55.4439 5.59478 55.3301 5.62001C53.3792 6.35724 51.7508 7.50608 50.5452 9.24623C50.3634 9.50876 50.1392 9.62697 49.8903 9.75657C48.407 10.5289 47.2549 11.6079 46.8052 13.3599C46.5148 14.4912 46.6321 15.5412 47.3181 16.5378C47.4688 16.6221 47.5425 16.7206 47.6348 16.8587C47.8236 17.1533 48.0659 17.3118 48.3686 17.4706C48.6313 17.355 48.7485 17.533 48.9136 17.6935C49.3081 18.3075 49.5641 18.9746 49.3972 19.6259C49.0972 20.796 49.0427 21.9475 49.2649 23.1217C49.4129 23.9034 49.4015 24.6805 49.2823 25.4626C49.077 26.8092 49.5069 27.8129 50.639 28.5124C51.3235 28.9354 52.0303 29.3252 52.7512 29.6752C53.4148 29.9973 53.1315 30.5789 53.1913 31.0799C53.2496 31.5673 52.9212 31.676 52.6097 31.7494C51.16 32.0908 50.2253 32.9595 49.9334 34.5203C49.8578 34.9243 49.614 35.1008 49.2395 35.239C47.67 35.8183 46.1308 36.4751 44.7692 37.673C43.7128 38.9693 42.8715 40.3172 41.9835 41.7788C41.6302 40.872 41.5327 40.0107 41.3149 39.1865C41.0205 38.0721 40.9885 36.8458 40.0644 35.9447C40.1818 35.7436 40.1405 35.4998 40.3567 35.356C42.5652 32.1769 44.7273 29.0115 46.9037 25.7878C46.7617 25.5504 46.5146 25.6573 46.3005 25.5103C46.1552 25.4614 46.0517 25.4311 45.8943 25.4062C45.7739 25.4084 45.7088 25.397 45.5996 25.3558C45.2619 25.2629 44.97 25.1904 44.6218 25.1268C44.5008 25.1245 44.4372 25.1077 44.3296 25.0651Z" fill="#FBFBFB"/>
<path d="M17.1709 74.6447C18.9106 70.9332 20.6328 67.282 22.361 63.634C23.6927 60.8231 25.0318 58.0161 26.4058 55.127C24.3809 55.127 22.4334 55.127 20.4745 55.127C20.4494 54.7756 20.6878 54.6071 20.8249 54.4026C23.009 51.144 25.2097 47.8976 27.3894 44.6358C27.624 44.2848 27.7721 44.199 28.1357 44.4738C29.1053 45.2069 30.1025 45.9009 31.1032 46.5873C31.4299 46.8114 31.4832 46.9831 31.2216 47.32C30.621 48.0936 30.0589 48.8999 29.4242 49.7711C31.2591 49.7711 32.984 49.7711 34.8871 49.7711C29.033 58.1467 23.2386 66.4368 17.404 74.7528C17.2771 74.8095 17.2079 74.7852 17.1709 74.6447Z" fill="#FFE600"/>
<path d="M37.4067 29.0874C37.282 29.0117 37.1639 28.9781 36.9997 28.9532C36.6352 28.9647 36.3166 28.969 36.003 28.7169C35.7593 28.332 35.3729 28.3879 35.0248 28.2457C34.8996 28.2306 34.8279 28.2094 34.7273 28.1563C34.0716 27.9214 33.4496 27.7031 32.7736 27.4895C32.6353 27.4839 32.5606 27.451 32.4707 27.3583C32.4445 27.3249 32.4476 27.261 32.4454 27.2291C32.5393 27.0769 32.5688 26.9128 32.7204 26.7825C33.0199 26.4405 33.2789 26.1186 33.5516 25.7493C33.6783 25.6 33.695 25.4306 33.8421 25.3033C34.5175 24.4646 35.1551 23.6486 35.8054 22.7838C35.941 22.6452 35.9505 22.4728 36.094 22.3472C38.2426 19.5632 40.3597 16.8076 42.468 14.0445C44.182 11.7981 45.8854 9.54286 47.6253 7.25484C47.7445 7.19881 47.8164 7.22545 47.8883 7.36017C45.1031 13.1385 42.3023 18.8548 39.5027 24.6241C39.5238 24.7025 39.5437 24.7277 39.5984 24.7859C41.3624 25.2653 43.0885 25.7255 44.8232 26.1472C45.1937 26.2373 45.3346 26.2725 45.0594 26.6721C43.1364 29.4647 41.2264 32.2671 39.3229 35.0744C39.1464 35.3347 39.0143 35.2943 38.8283 35.1234C38.4754 34.7991 38.1179 34.4802 37.7174 34.1437C37.5231 34.0372 37.3625 33.9594 37.2615 33.7445C37.1641 33.6451 37.1049 33.5688 37.036 33.5038C36.6012 33.0935 35.8893 32.7414 35.8009 32.2623C35.7013 31.7225 36.3681 31.2017 36.6819 30.6598C36.9003 30.2825 37.1455 29.9223 37.3877 29.5058C37.4231 29.3491 37.4764 29.2426 37.4067 29.0874Z" fill="#FFE600"/>
<path d="M60.8766 5.91554C61.2696 6.06707 61.6081 6.21878 61.9985 6.3669C64.4719 7.17295 66.4406 8.6529 67.9407 10.7964C69.7309 13.3544 70.1438 16.1581 69.1804 19.1645C69.0182 19.6706 68.9282 20.1312 69.0761 20.6612C69.1651 20.9803 69.1357 21.3463 69.1092 21.6869C69.083 22.0257 68.9938 22.3592 68.9213 22.7546C68.0902 19.2291 65.9806 16.6039 63.7703 14.0511C63.47 13.7043 63.4168 13.4664 63.6596 13.0511C64.3877 11.8054 64.368 11.7927 65.5603 12.5765C65.7188 12.6807 65.8769 12.7855 66.0824 12.908C66.3719 12.8783 66.4836 13.0971 66.6783 13.2221C66.7491 13.327 66.6421 13.2635 66.7322 13.2915C66.7646 13.3015 66.7791 13.2913 66.7758 13.2608C66.7739 13.2424 66.7566 13.2331 66.6915 13.2102C66.4861 13.0542 66.3918 12.8667 66.304 12.6184C66.128 12.3848 65.9729 12.1926 65.7755 11.9833C65.5921 11.8669 65.4279 11.7941 65.3285 11.5818C64.3732 10.7515 64.3732 10.7515 63.6082 11.6609C62.6507 12.799 62.6508 12.799 61.4948 11.8689C60.4722 11.0461 59.39 10.3265 58.1545 9.78127C58.0288 9.75974 57.9565 9.73411 57.8576 9.67039C57.3192 9.4421 57.3101 9.20435 57.6958 8.79812C59.0829 7.33756 60.7115 7.12851 62.567 7.67872C62.7068 7.60095 62.7996 7.56776 62.956 7.60653C63.258 7.69466 63.5099 7.77481 63.7983 7.89629C63.9041 7.93112 63.9637 7.95463 64.0223 7.98063C64.0811 8.00665 64.1381 8.03601 64.19 8.07523C64.1655 8.0098 64.095 8.01852 64.0102 7.96306C63.7283 7.8699 63.502 7.75602 63.2161 7.67128C62.984 7.60632 62.8079 7.5359 62.6566 7.32713C62.2123 7.05771 61.7517 7.0278 61.2617 6.93391C61.0969 6.94194 60.9797 6.94503 60.8255 6.88945C60.4524 6.85818 60.1203 6.84325 59.7271 6.8426C59.4753 6.9671 59.2653 6.93671 59.0095 6.94927C57.8183 7.093 56.8986 7.68146 56.1039 8.51151C55.902 8.72237 55.7278 8.95467 55.3428 8.85532C54.6694 8.86429 54.0497 8.86595 53.3719 8.86424C53.1177 8.87443 52.9216 8.88521 52.6701 8.91816C52.554 8.96743 52.4917 8.99014 52.3791 9.01649C52.1467 9.02452 51.9632 9.02452 51.6306 9.02452C53.229 7.41636 54.9455 6.3113 56.9806 5.78287C58.2695 5.44818 59.5587 5.33056 60.8766 5.91554Z" fill="#F8F8F8"/>
<path d="M39.4084 62.1168C39.8492 60.1014 40.271 58.1449 40.6989 56.1597C40.9782 56.1921 41.0576 56.4176 41.1786 56.572C43.5023 59.5368 45.8211 62.5057 48.1437 65.4713C48.3568 65.7435 48.5072 66.011 48.4869 66.3968C48.4285 67.502 48.3955 68.6094 48.3861 69.7163C48.3828 70.0975 48.2871 70.2374 47.9084 70.1979C44.6665 69.8597 41.5476 69.0283 38.551 67.6868C38.2741 67.5629 38.2483 67.4271 38.3169 67.127C38.693 65.4811 39.0355 63.8269 39.4084 62.1168Z" fill="#FCFCFC"/>
<path d="M62.0082 51.4006C62.6948 52.2398 63.4831 52.9071 64.0885 53.7618C66.0536 56.5362 66.7996 59.61 66.1173 63.0015C65.8015 64.5709 65.0238 65.8268 63.4269 66.2809C62.6312 66.5072 62.5653 66.4252 62.5861 65.571C62.7199 60.0763 60.5517 55.6883 56.6618 52.1461C55.8171 51.3768 54.9153 50.6764 53.9921 49.9043C55.3401 49.0974 56.7158 49.0923 58.1385 49.4498C59.1964 49.7157 60.1295 50.2765 61.1492 50.7627C61.4995 50.9077 61.7424 51.1294 62.0082 51.4006Z" fill="#FBFBFB"/>
<path d="M50.171 37.7291C50.2887 36.5458 50.6081 35.4743 50.8941 34.388C51.0772 33.6925 51.3324 33.1863 52.0313 32.9909C52.2978 32.9165 52.5429 32.7578 52.8599 32.608C52.7863 33.3206 52.472 33.8968 52.2872 34.5103C52.2126 34.758 52.1598 34.9553 52.2858 35.2036C52.6631 35.9467 52.8506 36.756 53.0048 37.6344C53.3261 38.0386 53.1666 38.4697 53.2153 38.8646C53.264 39.2594 53.0939 39.6787 53.3707 40.0521C53.4514 40.0444 53.488 40.0209 53.521 39.9478C53.5244 39.8649 53.5363 39.8203 53.596 39.7823C54.3791 39.2095 54.4797 38.2822 54.7487 37.4582C54.9744 36.7669 55.1156 36.0448 55.2826 35.3333C55.3303 35.1301 55.4647 35.0758 55.6251 35.0137C59.1236 33.6589 62.2733 31.6064 65.4535 29.6149C65.7628 29.4212 66.1092 29.0859 66.3139 29.7131C66.4611 30.1642 67.2939 30.4712 66.4778 31.1346C63.6394 33.4414 60.8375 35.7977 58.0347 38.1521C57.7022 38.4315 57.5229 38.4428 57.2751 38.0582C56.8573 37.41 56.3911 36.796 55.8697 36.0613C55.5491 37.5202 55.1548 38.8214 54.3838 39.986C55.1391 39.8484 55.3674 39.602 56.1618 38.1043C56.8063 39.0558 56.8123 39.1387 56.2527 40.1372C54.738 42.84 53.5573 45.6934 52.7854 48.7223C52.6654 49.1928 52.5258 49.1752 52.17 49.0153C50.9953 48.4874 50.9832 48.4994 51.1708 47.2033C51.4733 45.114 51.7935 43.0273 51.9038 40.8498C51.5726 40.3019 51.7462 39.7526 51.713 39.2325C51.6868 38.823 51.7163 38.4104 51.6874 37.9423C51.56 37.5496 51.6508 37.1669 51.4441 36.784C51.0922 37.05 51.0362 37.4475 50.9199 37.8692C50.6862 38.3934 50.7562 39.0155 50.1938 39.2971C49.9834 38.9952 50.0345 38.6948 50.0193 38.3411C50.0161 38.1013 50.0438 37.9333 50.171 37.7291Z" fill="#F7F7F7"/>
<path d="M47.3734 37.1639C47.9039 36.9347 48.3944 36.7171 48.8672 36.4636C49.2119 36.2787 49.3769 36.2876 49.3243 36.7607C49.295 37.0241 49.3181 37.294 49.3366 37.6256C49.7064 38.4026 49.612 39.2219 49.8694 40.0109C49.9563 40.2436 49.9238 40.4417 49.9653 40.6289C49.9864 40.7246 49.9896 40.5995 49.9851 40.6979C50.0155 40.6596 49.9804 40.6179 50.0062 40.5326C50.2991 40.256 50.5883 40.0369 50.7824 39.6464C50.8822 39.5102 50.9649 39.4365 51.1258 39.3834C51.7645 39.7707 51.3741 40.2443 51.2484 40.7459C50.9966 42.9887 50.6913 45.1662 50.3453 47.3385C50.2683 47.8219 50.1382 47.8442 49.7862 47.5814C48.1103 46.3299 46.4324 45.081 44.735 43.8621C44.3702 43.6002 44.3316 43.3236 44.4414 42.9386C44.6348 42.2605 44.8194 41.5797 45.0083 40.8415C45.1697 39.76 45.4861 38.8007 46.1157 37.9305C46.2911 37.8239 46.4165 37.736 46.5627 37.6057C46.7665 37.2987 47.0393 37.2158 47.3734 37.1639Z" fill="#FBFBFB"/>
<path d="M54.4866 12.559C54.2918 12.5712 54.1408 12.5827 53.9372 12.6176C53.8229 12.6656 53.7599 12.6853 53.6464 12.7051C53.1841 12.7078 52.8072 12.865 52.3786 13.0307C52.264 13.0946 52.1984 13.1346 52.0869 13.1608C51.4043 13.3255 50.8169 13.6381 50.2889 14.0335C49.7194 14.4599 49.6756 15.1986 49.4816 15.8991C49.3724 16.9144 49.1301 17.1089 48.4402 16.7167C46.6215 15.2097 47.1344 13.2897 48.1536 12.0224C49.3304 10.5592 50.9074 9.87697 52.6825 9.62999C56.0774 9.15766 58.7576 10.683 61.1714 12.9578C61.3962 13.1697 61.6335 13.3669 61.9147 13.5756C61.9661 13.7335 61.8795 13.8013 61.69 13.8119C61.2443 13.635 60.8566 13.4719 60.4159 13.3113C60.1437 13.2844 59.9424 13.1952 59.6987 13.0859C59.2249 12.9433 58.7929 12.8232 58.3046 12.7107C58.1325 12.7068 58.0148 12.7079 57.8633 12.6458C57.6742 12.5998 57.5255 12.5718 57.3202 12.552C57.1981 12.5567 57.1334 12.5468 57.0227 12.5154C56.3191 12.3755 55.6577 12.4517 54.9347 12.4664C54.7632 12.5367 54.6491 12.5592 54.4866 12.559Z" fill="#F8F8F8"/>
<path d="M35.8766 51.6945C35.4441 52.7443 35.1507 53.7646 35.5361 54.8653C35.6221 55.1108 35.4224 55.2731 35.2972 55.4451C33.7464 57.5744 32.1866 59.6965 30.65 61.837C30.3866 62.204 30.2334 62.2151 29.9021 61.9103C28.5087 60.6283 28.5054 60.6469 29.5821 59.1134C31.7493 56.0265 33.9062 52.9315 36.0705 49.8423C36.6486 49.0172 36.8065 49.0073 37.2258 49.6102C37.4621 49.95 37.2706 50.0732 37.0462 50.2871C36.7162 50.8342 36.3979 51.3246 35.8766 51.6945Z" fill="#F7F7F7"/>
<path d="M56.8856 41.1289C57.3365 40.4498 57.7513 39.8079 58.3483 39.3084C58.2143 40.3169 57.6872 41.2102 57.6478 42.2122C57.6032 43.3471 57.46 44.3677 56.4747 45.1079C56.0973 45.3913 55.9311 45.9727 55.8455 46.4815C55.627 47.7813 54.8118 48.4321 53.5874 48.7907C54.4185 46.095 55.3978 43.5243 56.8856 41.1289Z" fill="#F4F4F4"/>
<path d="M37.2074 51.3095C37.6497 50.7491 37.9138 50.8358 38.2322 51.4232C38.7169 52.3176 39.2727 53.1722 39.8361 54.016C40.1248 54.4483 40.2398 54.8546 40.0806 55.3729C39.9343 55.8492 39.8642 56.3512 39.7395 56.9414C39.3679 56.4032 39.1097 55.9038 38.7041 55.528C38.3629 55.2119 37.9704 55.0154 37.5277 54.907C36.595 54.6785 36.2419 54.1388 36.3237 53.1124C36.3619 52.6327 36.5465 52.2163 36.8026 51.7707C36.8529 51.5123 36.9779 51.3886 37.2074 51.3095Z" fill="#F6F6F6"/>
<path d="M70.8378 33.2836C69.0218 32.9377 67.2137 32.8981 65.3454 32.963C65.9879 32.4964 66.6198 32.0127 67.2779 31.5716C67.5494 31.3896 67.8689 31.5118 68.1634 31.5987C69.1222 31.8816 69.9547 32.4205 70.8022 33.0361C70.8479 33.1171 70.8568 33.166 70.8378 33.2836Z" fill="#EEEEEE"/>
<path d="M69.9701 61.4338C69.7248 61.3829 69.3192 61.7002 69.2814 61.2195C69.2539 60.8702 69.4245 60.5349 69.8136 60.4572C70.221 60.3758 70.6699 60.3555 70.8302 60.8513C71.0908 61.6574 70.9083 62.5053 70.9289 63.3348C70.9303 63.3877 70.8284 63.4942 70.82 63.4894C70.3695 63.2296 69.7686 63.8597 69.4123 63.2872C69.0866 62.764 69.2409 62.2517 69.6938 61.8485C69.7826 61.7695 69.8721 61.6913 69.9749 61.5648C69.9885 61.517 70.0305 61.4584 70.0305 61.4584C70.0305 61.4584 69.9866 61.4011 69.9701 61.4338Z" fill="#050505"/>
<path d="M34.3745 48.2179C34.7014 48.3488 34.9782 48.4592 35.255 48.5696C35.2501 48.6033 35.2453 48.637 35.2404 48.6706C33.9934 48.6706 32.7463 48.6706 31.3774 48.6706C31.6494 48.2603 31.8753 47.9347 32.085 47.598C32.2218 47.3784 32.3617 47.4274 32.5585 47.5103C33.1408 47.7557 33.7349 47.9706 34.3745 48.2179Z" fill="#D9D9D9"/>
<path d="M51.2668 40.7905C51.0986 40.3597 51.5006 39.9025 51.1206 39.469C50.9206 39.2777 51.0509 39.0508 50.9483 38.6952C50.9579 39.1193 50.9232 39.3887 50.8921 39.6998C50.6977 40.0422 50.6065 40.4502 50.1834 40.5511C49.7711 40.1458 49.8271 39.7481 50.1256 39.3218C50.5275 38.9135 50.5396 38.3907 50.7298 37.885C50.9843 37.5816 51.2418 37.4502 51.6233 37.6506C52.0067 38.6696 51.7615 39.6739 51.7758 40.7116C51.5939 40.7688 51.456 40.7758 51.2668 40.7905Z" fill="#050505"/>
<path d="M46.1129 37.8732C45.6458 38.7793 45.4616 39.7885 45.0472 40.7499C44.7329 40.6978 44.7342 40.3598 44.4843 40.2044C44.3273 40.0156 44.5296 39.8809 44.5392 39.6678C44.5694 39.1761 45.0079 39.2052 45.2182 38.9833C45.388 38.8041 45.6562 38.7009 45.5233 38.3591C45.2424 38.4482 45.1252 38.8863 44.7777 38.6986C44.3583 38.4721 44.8276 38.1379 44.7105 37.8042C44.7111 37.7408 44.7197 37.6777 44.737 37.68C45.1874 37.7544 45.6517 37.5321 46.1129 37.8732Z" fill="#050505"/>
<path d="M53.5388 37.7244C53.4871 37.096 53.3975 36.5299 53.2965 35.8922C53.4513 35.9247 53.5339 35.9422 53.6165 35.9593C54.7742 36.2 54.7902 36.2052 54.4213 37.4551C54.2592 38.0044 53.9953 38.5164 53.6438 39.0225C53.3013 38.6489 53.345 38.2226 53.5388 37.7244Z" fill="#EEEEEE"/>
<path d="M49.6141 62.75C49.3594 63.3325 48.9122 63.1439 48.6142 62.9964C48.3093 62.8455 48.3538 62.4391 48.5431 62.153C48.6883 61.9334 48.7555 61.8429 48.508 61.6025C48.2827 61.3838 48.5183 61.1076 48.7772 60.9969C49.1024 60.8577 49.3818 60.9345 49.5189 61.3028C49.6853 61.7498 49.6015 62.2226 49.6141 62.75Z" fill="#050505"/>
<path d="M71.8492 63.3365C71.3769 63.6961 71.2039 63.5268 71.2105 63.0031C71.2215 62.1198 71.2028 61.2361 71.2212 60.3532C71.226 60.1235 71.0652 59.7492 71.4857 59.726C71.9645 59.6994 71.7827 60.1106 71.8211 60.3652C71.8392 60.4854 71.8305 60.61 71.8428 60.7967C72.0143 61.6619 71.8827 62.4645 71.8492 63.3365Z" fill="#050505"/>
<path d="M44.5236 39.6392C44.5215 39.7836 44.4744 39.9416 44.4323 40.1503C44.2044 40.965 43.9621 41.7261 43.7435 42.4947C43.6602 42.7873 43.5576 42.9368 43.2739 42.7221C43.0751 42.5717 42.6827 42.543 42.9604 42.106C43.4759 41.2949 43.9735 40.4713 44.5236 39.6392Z" fill="#EEEEEE"/>
<path d="M53.5223 37.6727C53.5904 38.0774 53.604 38.4927 53.6081 38.9771C53.6037 39.2307 53.6089 39.4151 53.622 39.6922C53.6299 39.7849 53.6209 39.8025 53.6125 39.8043C53.6191 39.8596 53.6342 39.9133 53.6234 40.0465C53.5391 40.3788 53.3388 40.5335 53.142 40.4802C52.919 40.4199 53.0308 40.1426 53.0275 39.9605C53.0143 39.249 53.0161 38.5371 53.0187 37.7569C53.1727 37.6867 53.3202 37.685 53.5223 37.6727Z" fill="#050505"/>
<path d="M48.4039 16.7372C49.2485 17.3031 49.1694 16.4048 49.4376 15.9868C49.7669 16.396 49.5999 16.8857 49.5953 17.3473C49.591 17.7778 49.1661 17.4468 48.9709 17.6764C48.7815 17.6772 48.6185 17.625 48.4343 17.5327C48.4092 17.2635 48.4053 17.0346 48.4039 16.7372Z" fill="#050505"/>
<path d="M49.8665 40.1875C49.4152 39.4514 49.4126 38.6278 49.3472 37.755C49.6001 37.6985 49.8446 37.7066 50.1482 37.6956C50.2035 37.847 50.1998 38.0176 50.1743 38.2481C49.9796 38.9209 50.0878 39.5713 49.8665 40.1875Z" fill="#050505"/>
<path d="M37.196 51.2594C37.1317 51.4265 37.0143 51.5614 36.8535 51.7073C36.5284 51.7142 36.2466 51.7102 35.9055 51.7196C36.159 51.2329 36.4596 50.7225 36.9743 50.3442C37.06 50.6286 37.1013 50.9279 37.196 51.2594Z" fill="#050505"/>
<path d="M61.2769 50.0059C61.6047 50.0253 61.8406 50.1845 62.0131 50.4529C62.0069 50.651 61.8229 50.6858 61.7388 50.8581C61.7289 50.9199 61.7035 50.9582 61.6874 50.975C61.6713 50.9918 61.6271 51.0109 61.6028 51.0138C61.3924 50.9222 61.2062 50.8277 61.0071 50.6988C61.4117 50.5773 61.1603 50.2517 61.2769 50.0059Z" fill="#050505"/>
<path d="M71.8759 63.403C71.8289 62.6037 71.8229 61.8009 71.8343 60.9295C71.8516 60.8608 71.8732 60.8566 71.8839 60.8582C71.8687 61.3049 72.0189 61.5547 72.5463 61.4437C72.6416 61.4348 72.6802 61.4319 72.715 61.4897C72.2292 62.0176 71.6806 62.4562 72.0595 63.3338C72.0267 63.3906 71.9719 63.3951 71.8759 63.403Z" fill="#050505"/>
<path d="M53.3541 8.9083C53.9343 8.66873 54.5631 8.76213 55.2398 8.83522C54.6681 9.1477 54.0292 9.00077 53.3541 8.9083Z" fill="#161616"/>
<path d="M51.7723 40.7688C51.7131 39.7811 51.8874 38.7929 51.6013 37.7668C51.6101 37.6827 51.6453 37.6533 51.7452 37.644C52.0311 38.6516 51.925 39.653 51.9098 40.7175C51.8671 40.782 51.8399 40.7788 51.7723 40.7688Z" fill="#232323"/>
<path d="M61.6427 13.8463C61.7303 13.7604 61.8286 13.7225 61.9456 13.6325C62.312 13.6467 62.5318 13.8422 62.6095 14.3104C62.2263 14.2138 61.8946 14.1889 61.6427 13.8463Z" fill="#161616"/>
<path d="M47.3651 37.1481C47.1738 37.3001 46.9266 37.4325 46.6315 37.564C46.5714 36.8587 46.6394 36.818 47.3651 37.1481Z" fill="#050505"/>
<path d="M35.9662 28.7393C36.2661 28.7529 36.5721 28.8211 36.9158 28.9256C36.5813 29.195 36.236 29.2564 35.9662 28.7393Z" fill="#101010"/>
<path d="M48.134 6.66662C48.1234 6.31734 48.3393 6.15235 48.5349 5.89666C48.7444 6.27507 48.5144 6.42392 48.3096 6.61874C48.2377 6.66444 48.206 6.68667 48.134 6.66662Z" fill="#101010"/>
<path d="M66.7339 13.3435C66.524 13.2774 66.3483 13.1443 66.1511 12.9687C66.1672 12.8386 66.2049 12.7511 66.2628 12.6202C66.4218 12.7331 66.5605 12.8894 66.7204 13.0865C66.7505 13.1772 66.7593 13.2269 66.7339 13.3435Z" fill="#161616"/>
<path d="M69.1021 10.2956C69.032 10.3777 68.9418 10.4174 68.8242 10.501C68.6773 10.4102 68.5579 10.2754 68.4146 10.1014C68.3635 9.9794 68.3847 9.9138 68.5091 9.87263C68.7366 10.0043 68.9094 10.1288 69.1021 10.2956Z" fill="#D9D9D9"/>
<path d="M48.0525 6.64642C48.1224 6.63155 48.1512 6.63879 48.2247 6.64411C48.1724 6.88306 48.0754 7.12392 47.9411 7.39353C47.8611 7.35575 47.8184 7.28922 47.7164 7.22043C47.7752 7.03495 47.8933 6.85174 48.0525 6.64642Z" fill="#818181"/>
<path d="M58.9895 6.9903C59.1406 6.80643 59.3568 6.84369 59.6147 6.84287C59.5268 7.22613 59.2644 7.0887 58.9895 6.9903Z" fill="#161616"/>
<path d="M59.6672 13.1089C59.87 13.1233 60.083 13.1831 60.3295 13.2784C60.0795 13.5203 59.8887 13.2887 59.6672 13.1089Z" fill="#161616"/>
<path d="M32.8713 30.5501C33.0734 30.5614 33.2868 30.6175 33.5328 30.7101C33.2835 30.9645 33.0946 30.7222 32.8713 30.5501Z" fill="#101010"/>
<path d="M56.7291 5.21206C56.8344 5.10854 56.9683 5.04187 57.1067 4.92802C57.2186 4.88691 57.402 4.89579 57.3297 5.03369C57.2211 5.241 56.9901 5.29515 56.7291 5.21206Z" fill="#161616"/>
<path d="M47.0113 6.94186C47.0773 6.76515 47.1966 6.58922 47.3575 6.39693C47.3784 6.62725 47.455 6.93738 47.0113 6.94186Z" fill="#101010"/>
<path d="M39.2363 16.8339C39.3076 16.6567 39.4303 16.4788 39.5951 16.2833C39.6396 16.5352 39.599 16.7756 39.2363 16.8339Z" fill="#101010"/>
<path d="M63.0446 7.72994C62.893 7.70929 62.8009 7.70636 62.6655 7.6862C62.6202 7.57603 62.6182 7.48309 62.6175 7.34366C62.8494 7.18684 62.8907 7.55539 63.143 7.51911C63.214 7.62783 63.1858 7.69924 63.0446 7.72994Z" fill="#050505"/>
<path d="M32.2979 25.6649C32.3705 25.4755 32.4971 25.2992 32.6663 25.105C32.723 25.3723 32.7257 25.6499 32.2979 25.6649Z" fill="#101010"/>
<path d="M17.1448 74.6176C17.22 74.6327 17.2541 74.6823 17.3261 74.7554C17.2871 74.9777 17.2009 75.1686 16.9675 75.2832C16.8091 75.0129 17.0772 74.8563 17.1448 74.6176Z" fill="#D9D9D9"/>
<path d="M70.8342 33.3861C70.8201 33.3055 70.8304 33.2588 70.8398 33.1401C71.0107 33.118 71.2381 33.1751 71.205 33.3876C71.1778 33.5617 70.9817 33.4383 70.8342 33.3861Z" fill="#818181"/>
<path d="M46.2865 25.5494C46.497 25.5233 46.7485 25.4954 46.9372 25.6961C46.7116 25.7166 46.4919 25.7754 46.2865 25.5494Z" fill="#101010"/>
<path d="M36.4396 20.3888C36.4899 20.233 36.5971 20.0769 36.7456 19.8988C36.8157 20.1256 36.8383 20.3707 36.4396 20.3888Z" fill="#101010"/>
<path d="M37.2304 33.7702C37.3658 33.8245 37.5038 33.9328 37.6571 34.0847C37.4531 34.1425 37.2477 34.1347 37.2304 33.7702Z" fill="#101010"/>
<path d="M40.3486 35.3405C40.3058 35.5024 40.2084 35.6625 40.0816 35.8589C40.0778 35.6834 39.9735 35.4096 40.3486 35.3405Z" fill="#101010"/>
<path d="M60.7951 6.91601C60.9046 6.87491 61.0247 6.87672 61.1792 6.91029C61.0846 7.12938 60.9487 7.13876 60.7951 6.91601Z" fill="#161616"/>
<path d="M57.8325 12.6706C57.9407 12.639 58.0584 12.6503 58.2123 12.69C58.1109 12.8961 57.9754 12.8968 57.8325 12.6706Z" fill="#161616"/>
<path d="M68.5435 9.83921C68.5164 9.91241 68.4689 9.94495 68.4061 10.0198C68.2927 9.95752 68.1946 9.85284 68.0838 9.70483C68.0712 9.66149 68.0838 9.60091 68.1124 9.59318C68.2684 9.65648 68.3957 9.72751 68.5435 9.83921Z" fill="#818181"/>
<path d="M43.5219 11.3842C43.5685 11.2359 43.6678 11.0845 43.8079 10.9139C43.8683 11.1254 43.8842 11.3538 43.5219 11.3842Z" fill="#101010"/>
<path d="M35.6153 21.4304C35.6657 21.2848 35.7688 21.1367 35.9132 20.9711C35.9722 21.1867 35.9747 21.4099 35.6153 21.4304Z" fill="#101010"/>
<path d="M65.2964 11.6083C65.4318 11.6627 65.5694 11.7705 65.7201 11.9222C65.5156 11.9784 65.3162 11.9623 65.2964 11.6083Z" fill="#161616"/>
<path d="M54.4663 12.5965C54.5565 12.5254 54.6703 12.4911 54.8278 12.4707C54.8102 12.72 54.6745 12.7456 54.4663 12.5965Z" fill="#161616"/>
<path d="M16.7984 75.5369C16.8203 75.791 16.7194 75.9893 16.5624 75.9247C16.394 75.8554 16.5862 75.6856 16.6654 75.5337C16.7376 75.4974 16.7734 75.4889 16.7984 75.5369Z" fill="#6C6C6C"/>
<path d="M42.0419 13.2681C42.0705 13.1378 42.1505 13.0121 42.2719 12.8714C42.3035 13.032 42.3405 13.2348 42.0419 13.2681Z" fill="#101010"/>
<path d="M39.9307 15.943C39.9608 15.8182 40.0413 15.6926 40.1625 15.55C40.1939 15.708 40.2113 15.899 39.9307 15.943Z" fill="#101010"/>
<path d="M37.9573 18.4553C37.9867 18.3299 38.0665 18.2034 38.1873 18.0602C38.2199 18.2187 38.2393 18.4104 37.9573 18.4553Z" fill="#101010"/>
<path d="M37.2533 19.3502C37.2832 19.2266 37.3631 19.0992 37.484 18.9544C37.5168 19.1126 37.5273 19.2993 37.2533 19.3502Z" fill="#101010"/>
<path d="M36.0802 22.325C36.0515 22.4462 35.9736 22.5703 35.8569 22.7147C35.8287 22.5646 35.8094 22.3772 36.0802 22.325Z" fill="#101010"/>
<path d="M33.8296 25.2831C33.8019 25.4086 33.7239 25.5365 33.6055 25.6833C33.5736 25.5278 33.5496 25.3351 33.8296 25.2831Z" fill="#101010"/>
<path d="M32.7086 26.7638C32.6803 26.8912 32.5998 27.0199 32.4812 27.1729C32.4452 27.0157 32.4152 26.817 32.7086 26.7638Z" fill="#101010"/>
<path d="M45.561 25.3742C45.6321 25.339 45.7103 25.3427 45.8145 25.3791C45.7504 25.563 45.6596 25.5691 45.561 25.3742Z" fill="#101010"/>
<path d="M55.3136 5.65867C55.3596 5.58365 55.427 5.54118 55.5345 5.50477C55.5522 5.65459 55.5146 5.77648 55.3136 5.65867Z" fill="#161616"/>
<path d="M52.3494 9.05675C52.3995 8.98957 52.4688 8.95461 52.5764 8.93C52.5845 9.08399 52.5274 9.17894 52.3494 9.05675Z" fill="#161616"/>
<path d="M57.8285 9.68996C57.9011 9.66988 57.9779 9.6892 58.0794 9.74287C57.9878 9.9219 57.9015 9.87985 57.8285 9.68996Z" fill="#161616"/>
<path d="M56.9841 12.5369C57.0526 12.5004 57.1293 12.5013 57.2349 12.5311C57.1801 12.7082 57.0896 12.7126 56.9841 12.5369Z" fill="#161616"/>
<path d="M53.6156 12.743C53.6677 12.679 53.7382 12.6478 53.8466 12.6288C53.8499 12.7857 53.7879 12.8746 53.6156 12.743Z" fill="#161616"/>
<path d="M34.6995 28.1775C34.7691 28.1543 34.8446 28.169 34.9464 28.2152C34.8675 28.387 34.78 28.3614 34.6995 28.1775Z" fill="#101010"/>
<path d="M52.0709 13.1997C52.1173 13.1275 52.1849 13.0869 52.2921 13.0531C52.3083 13.2036 52.2625 13.3129 52.0709 13.1997Z" fill="#161616"/>
<path d="M41.7822 13.5833C41.7941 13.4896 41.8557 13.3914 41.9567 13.2751C42.0206 13.4085 41.9997 13.5347 41.7822 13.5833Z" fill="#101010"/>
<path d="M30.8791 27.7439C30.4958 27.7976 30.6669 27.6219 30.8239 27.4399C30.8698 27.5044 30.8753 27.5914 30.8791 27.7439Z" fill="#101010"/>
<path d="M47.651 16.8482C47.5599 16.8208 47.4705 16.7387 47.3705 16.6101C47.5114 16.565 47.6344 16.6062 47.651 16.8482Z" fill="#161616"/>
<path d="M32.445 27.369C32.5186 27.3596 32.5927 27.3943 32.6932 27.4615C32.5762 27.6602 32.4962 27.5912 32.445 27.369Z" fill="#101010"/>
<path d="M32.0418 25.9919C32.0492 25.8963 32.1081 25.7969 32.2045 25.676C32.2843 25.8105 32.2717 25.9398 32.0418 25.9919Z" fill="#101010"/>
<path d="M44.2908 25.0827C44.3591 25.0567 44.4338 25.0686 44.5372 25.1081C44.4686 25.2789 44.3794 25.2673 44.2908 25.0827Z" fill="#101010"/>
<path d="M43.5862 24.9336C43.6568 24.8988 43.7345 24.9028 43.8388 24.9382C43.776 25.1186 43.6854 25.1281 43.5862 24.9336Z" fill="#101010"/>
<path d="M42.3161 24.6344C42.3845 24.61 42.4592 24.6236 42.5624 24.6651C42.4909 24.8365 42.402 24.8207 42.3161 24.6344Z" fill="#101010"/>
<path d="M41.6118 24.4901C41.6816 24.4566 41.7586 24.4616 41.8632 24.4966C41.8012 24.6762 41.7107 24.6825 41.6118 24.4901Z" fill="#101010"/>
<path d="M37.3941 29.1138C37.6375 29.1022 37.5657 29.2454 37.4422 29.4238C37.3938 29.3655 37.3909 29.2739 37.3941 29.1138Z" fill="#101010"/>
<path d="M39.6195 24.7881C39.5816 24.8012 39.5301 24.7836 39.4912 24.7216C39.5464 24.692 39.5804 24.7187 39.6195 24.7881Z" fill="#101010"/>
<path d="M68.0887 9.64257C68.0478 9.61149 68.0245 9.56149 68.0011 9.51148C68.0368 9.51108 68.0726 9.51068 68.1247 9.54787C68.1411 9.58545 68.1063 9.62365 68.0887 9.64257Z" fill="#818181"/>
<path d="M16.7362 75.514C16.7602 75.4588 16.8185 75.4115 16.8768 75.3643C16.8784 75.4198 16.8799 75.4753 16.8346 75.5621C16.7877 75.5935 16.7705 75.5219 16.7362 75.514Z" fill="#D9D9D9"/>
<path d="M16.425 76.1696C16.4203 76.1592 16.4298 76.18 16.425 76.1696V76.1696Z" fill="#6C6C6C"/>
<path d="M48.9104 4.37602C48.8879 4.38324 48.8681 4.36373 48.8162 4.31798C48.8271 4.31093 48.8701 4.33011 48.9104 4.37602Z" fill="#101010"/>
<path d="M73.0336 62.1245C73.4731 61.7876 73.2435 62.231 73.281 62.3243C73.322 62.4265 73.26 62.6067 73.1127 62.557C72.9526 62.5031 72.9999 62.3182 73.0336 62.1245Z" fill="#050505"/>
<path d="M72.6294 61.4665C72.6441 61.2942 72.5929 61.0167 72.8256 61.1001C72.9962 61.1612 72.9434 61.3788 72.7541 61.53C72.6926 61.5321 72.6742 61.5137 72.6294 61.4665Z" fill="#050505"/>
<path d="M82.8272 28.1585C82.9741 28.3468 82.9602 28.5385 82.83 28.7892C82.5927 28.5582 82.6076 28.3727 82.8272 28.1585Z" fill="#161616"/>
<path d="M61.605 5.42797C61.6077 5.55428 61.5866 5.64019 61.5656 5.72611C61.5136 5.69478 61.4275 5.67343 61.416 5.63027C61.3801 5.49532 61.4522 5.41365 61.605 5.42797Z" fill="#232323"/>
<path d="M61.4846 4.71698C61.4984 4.67123 61.5254 4.63928 61.5524 4.60732C61.5618 4.64599 61.5713 4.68467 61.5526 4.74073C61.5244 4.75813 61.4978 4.73077 61.4846 4.71698Z" fill="#050505"/>
<path d="M24.0602 16.7823C24.0997 16.9384 24.121 17.064 23.9696 17.0963C23.94 17.1026 23.8783 17.0662 23.8694 17.0369C23.8235 16.8842 23.8434 16.7602 24.0602 16.7823Z" fill="#232323"/>
<path d="M63.0228 7.75111C63.0362 7.67903 63.0874 7.64583 63.1634 7.5729C63.5 7.44423 63.6548 7.79096 63.9721 7.8368C64.0498 7.93093 64.03 7.99574 63.9088 8.03547C63.5706 8.02032 63.3061 7.94016 63.0228 7.75111Z" fill="#050505"/>
<path d="M63.8848 8.06916C63.8985 7.99273 63.9418 7.95919 64.0033 7.88786C64.2938 7.9365 64.7709 8.15527 64.6916 8.27258C64.4474 8.63398 64.2073 8.07167 63.8848 8.06916Z" fill="#050505"/>
<path d="M66.7124 13.4501C66.71 13.3638 66.7204 13.3172 66.7362 13.199C66.9375 13.2339 67.0321 13.4212 67.1565 13.7416C66.9619 13.628 66.8435 13.559 66.7124 13.4501Z" fill="#7A7A7A"/>
<path d="M51.8101 37.602C51.7708 37.6718 51.7316 37.6794 51.6336 37.6996C51.3212 37.6517 51.0894 37.7171 50.8154 37.8454C50.8623 37.2659 51.0822 36.7501 51.4736 36.2645C51.7641 36.6784 51.747 37.1211 51.8101 37.602Z" fill="#161616"/>
<path d="M49.8121 40.2474C50.0209 39.8336 49.853 39.4398 49.9115 39.0694C49.9502 38.8249 49.7853 38.5363 50.1014 38.3237C50.1604 38.5998 50.1682 38.8916 50.1851 39.2455C49.9791 39.6517 50.1643 40.0245 50.1352 40.4442C50.3233 40.7386 50.1953 40.8935 50.0147 41.052C49.8433 40.8289 49.8703 40.554 49.8121 40.2474Z" fill="#101010"/>
<path d="M53.6546 40.0936C53.5981 40.0726 53.5987 40.0192 53.6016 39.8859C53.8277 39.8042 53.7966 39.9203 53.6546 40.0936Z" fill="#161616"/>
<path d="M50.9294 39.708C50.7124 39.6477 50.7645 39.4528 50.7727 39.2948C50.7889 38.9836 50.6811 38.6544 50.8686 38.3676C50.8884 38.3374 51.029 38.3406 51.0514 38.374C51.2627 38.6899 51.1959 39.0217 51.0732 39.409C51.0286 39.5348 50.9877 39.6033 50.9294 39.708Z" fill="#161616"/>
<path d="M69.9718 62.6598C69.9752 62.4572 70.003 62.316 70.1706 62.2929C70.1826 62.2913 70.2363 62.4537 70.2333 62.5384C70.2277 62.7013 70.2305 62.9195 69.9718 62.6598Z" fill="#050505"/>
<path d="M69.9629 61.4787C69.969 61.334 69.9225 61.1744 70.0834 61.1048C70.1086 61.0939 70.175 61.1283 70.1893 61.1587C70.2588 61.3068 70.2269 61.4297 70.0352 61.5137C69.9885 61.517 69.9722 61.4909 69.9629 61.4787Z" fill="#050505"/>
<path d="M49.0474 61.6141C48.9872 61.7215 48.9474 61.6877 48.948 61.6171C48.9485 61.5642 48.981 61.4956 49.0474 61.6141Z" fill="#050505"/>
<path d="M61.4189 28.2747C61.4951 28.1662 61.5709 28.0738 61.6205 28.2179C61.6446 28.2879 61.6112 28.4387 61.5617 28.4646C61.4711 28.5121 61.4045 28.4306 61.4189 28.2747Z" fill="#232323"/>
<path d="M61.4873 27.4757C61.4999 27.4279 61.5267 27.3949 61.5535 27.362C61.5637 27.4015 61.574 27.4411 61.5571 27.5004C61.5299 27.5203 61.5014 27.4906 61.4873 27.4757Z" fill="#050505"/>
<path d="M61.5267 50.251C61.507 50.203 61.5241 50.1605 61.5778 50.1167C61.5974 50.1624 61.5804 50.2094 61.5267 50.251Z" fill="#050505"/>
</svg>
