<svg width="50" height="50" viewBox="0 0 50 50" fill="none" xmlns="http://www.w3.org/2000/svg">
<path d="M0 50L3.58739 36.6731C0.694249 31.4816 -0.22493 25.4235 0.998521 19.6106C2.22197 13.7977 5.50598 8.61976 10.2479 5.02705C14.9899 1.43433 20.8717 -0.332198 26.8141 0.0516117C32.7564 0.435421 38.3607 2.94383 42.5985 7.11653C46.8364 11.2892 49.4235 16.8463 49.8851 22.7681C50.3468 28.6899 48.652 34.5791 45.1118 39.3551C41.5716 44.1311 36.4234 47.4735 30.612 48.7689C24.8005 50.0644 18.7156 49.226 13.4739 46.4077L0 50ZM14.1236 41.4206L14.9569 41.9137C18.7536 44.1584 23.1881 45.0872 27.5693 44.5556C31.9505 44.0239 36.0324 42.0616 39.1788 38.9744C42.3251 35.8872 44.3593 31.8485 44.9643 27.4878C45.5692 23.127 44.711 18.6891 42.5233 14.8657C40.3356 11.0422 36.9414 8.04804 32.8695 6.34967C28.7976 4.6513 24.2769 4.34416 20.0117 5.47612C15.7466 6.60807 11.9767 9.11555 9.28941 12.6078C6.60216 16.1 5.14855 20.3808 5.1551 24.7831C5.15153 28.4333 6.16361 32.0129 8.07868 35.1235L8.60125 35.9828L6.59571 43.4211L14.1236 41.4206Z" fill="#00D95F"/>
<path fill-rule="evenodd" clip-rule="evenodd" d="M34.3481 28.2051C33.8596 27.8121 33.2877 27.5355 32.6758 27.3964C32.0639 27.2572 31.4282 27.2592 30.8172 27.4021C29.8992 27.7825 29.306 29.2194 28.7128 29.9379C28.5877 30.1101 28.4039 30.2309 28.1959 30.2776C27.9879 30.3243 27.7699 30.2937 27.5829 30.1915C24.222 28.8785 21.4048 26.4706 19.589 23.359C19.4341 23.1648 19.3608 22.9183 19.3845 22.6713C19.4082 22.4243 19.5271 22.1961 19.7161 22.0347C20.3777 21.3815 20.8635 20.5723 21.1285 19.6821C21.1873 18.7002 20.9618 17.7222 20.4788 16.8646C20.1054 15.6623 19.3948 14.5917 18.4309 13.7794C17.9337 13.5564 17.3825 13.4816 16.8437 13.5641C16.3049 13.6466 15.8015 13.8828 15.3943 14.2443C14.6874 14.8526 14.1262 15.6114 13.7523 16.4648C13.3783 17.3181 13.201 18.2442 13.2334 19.175C13.2356 19.6976 13.302 20.218 13.4311 20.7246C13.7591 21.9416 14.2634 23.1044 14.9282 24.1761C15.4078 24.997 15.9312 25.7917 16.4959 26.5569C18.3314 29.0701 20.6385 31.2039 23.2894 32.84C24.6196 33.6713 26.0413 34.3473 27.5264 34.8545C29.0692 35.552 30.7725 35.8198 32.4556 35.6293C33.4145 35.4845 34.3231 35.1069 35.1013 34.5296C35.8796 33.9523 36.5036 33.1931 36.9186 32.3187C37.1624 31.7905 37.2364 31.2 37.1305 30.6282C36.8762 29.4589 35.3085 28.7686 34.3481 28.2051Z" fill="#00D95F"/>
</svg>
